<svg width="169" height="45" viewBox="0 0 169 45" fill="none" xmlns="http://www.w3.org/2000/svg">
<path fill-rule="evenodd" clip-rule="evenodd" d="M23.2789 0.803848C21.4225 -0.267948 19.1353 -0.26795 17.2789 0.803846L3 9.04777C1.14359 10.1196 0 12.1003 0 14.2439V30.7318C0 32.8754 1.14359 34.8561 3 35.9279L17.2789 44.1718C19.1353 45.2436 21.4225 45.2436 23.2789 44.1718L37.5578 35.9279C39.4142 34.8561 40.5578 32.8754 40.5578 30.7318V14.2439C40.5578 12.1003 39.4142 10.1196 37.5578 9.04777L23.2789 0.803848ZM21.7789 8.26334C20.8507 7.72744 19.7071 7.72744 18.7789 8.26334L8.71032 14.0765C7.78212 14.6124 7.21032 15.6027 7.21032 16.6745V28.3008C7.21032 29.3726 7.78212 30.3629 8.71032 30.8988L18.7789 36.712C19.7071 37.2479 20.8507 37.2479 21.7789 36.712L31.8476 30.8988C32.7758 30.3629 33.3476 29.3726 33.3476 28.3008V16.6745C33.3476 15.6027 32.7758 14.6124 31.8476 14.0765L21.7789 8.26334Z" fill="#1D69D6"/>
<path d="M68.6231 13.5332V30.9878H65.8106L57.5862 19.0986H57.4413V30.9878H54.2794V13.5332H57.1089L65.3248 25.431H65.4783V13.5332H68.6231ZM77.7275 31.2435C76.415 31.2435 75.2815 30.9707 74.327 30.4253C73.3781 29.8742 72.648 29.0957 72.1366 28.0901C71.6253 27.0787 71.3696 25.8884 71.3696 24.519C71.3696 23.1725 71.6253 21.9906 72.1366 20.9736C72.6537 19.9509 73.3753 19.1554 74.3014 18.5872C75.2275 18.0134 76.3156 17.7264 77.5656 17.7264C78.3724 17.7264 79.1338 17.8571 79.8497 18.1185C80.5713 18.3742 81.2077 18.7719 81.7588 19.3117C82.3156 19.8514 82.7531 20.5389 83.0713 21.3742C83.3895 22.2037 83.5486 23.1923 83.5486 24.3401V25.2861H72.8185V23.2065H80.5912C80.5855 22.6156 80.4577 22.0901 80.2077 21.6298C79.9577 21.1639 79.6082 20.7975 79.1594 20.5304C78.7162 20.2634 78.1991 20.1298 77.6082 20.1298C76.9775 20.1298 76.4236 20.2832 75.9463 20.5901C75.469 20.8912 75.0969 21.2889 74.8298 21.7832C74.5685 22.2719 74.4349 22.8088 74.4292 23.394V25.2094C74.4292 25.9707 74.5685 26.6242 74.8469 27.1696C75.1253 27.7094 75.5145 28.1242 76.0145 28.4139C76.5145 28.698 77.0997 28.8401 77.7702 28.8401C78.219 28.8401 78.6253 28.7776 78.9889 28.6526C79.3525 28.5219 79.6679 28.3315 79.9349 28.0815C80.202 27.8315 80.4037 27.5219 80.54 27.1526L83.4207 27.4764C83.2389 28.2378 82.8923 28.9026 82.381 29.4707C81.8753 30.0332 81.2275 30.4707 80.4378 30.7832C79.648 31.0901 78.7446 31.2435 77.7275 31.2435ZM88.4001 17.8969L91.0422 22.7293L93.7268 17.8969H96.991L93.045 24.4423L97.0592 30.9878H93.8121L91.0422 26.2747L88.2979 30.9878H85.0251L89.0138 24.4423L85.1274 17.8969H88.4001ZM103.098 31.252C102.268 31.252 101.521 31.1043 100.856 30.8088C100.197 30.5077 99.6743 30.0645 99.2879 29.4793C98.9072 28.894 98.7169 28.1725 98.7169 27.3145C98.7169 26.5759 98.8533 25.9651 99.126 25.4821C99.3987 24.9992 99.7709 24.6128 100.242 24.323C100.714 24.0332 101.245 23.8145 101.836 23.6668C102.433 23.5134 103.049 23.4026 103.686 23.3344C104.453 23.2548 105.075 23.1838 105.552 23.1213C106.029 23.0531 106.376 22.9509 106.592 22.8145C106.813 22.6725 106.924 22.4537 106.924 22.1582V22.1071C106.924 21.4651 106.734 20.9679 106.353 20.6156C105.973 20.2634 105.424 20.0872 104.708 20.0872C103.953 20.0872 103.353 20.252 102.91 20.5815C102.473 20.9111 102.177 21.3003 102.024 21.7492L99.143 21.3401C99.3703 20.5446 99.7453 19.8798 100.268 19.3457C100.791 18.806 101.43 18.4026 102.186 18.1355C102.941 17.8628 103.777 17.7264 104.691 17.7264C105.322 17.7264 105.95 17.8003 106.575 17.948C107.2 18.0957 107.771 18.3401 108.288 18.681C108.805 19.0162 109.22 19.4736 109.532 20.0531C109.85 20.6327 110.01 21.3571 110.01 22.2264V30.9878H107.044V29.1895H106.941C106.754 29.5531 106.49 29.894 106.149 30.2122C105.813 30.5247 105.39 30.7776 104.879 30.9707C104.373 31.1582 103.779 31.252 103.098 31.252ZM103.899 28.985C104.518 28.985 105.055 28.8628 105.51 28.6185C105.964 28.3685 106.313 28.0389 106.558 27.6298C106.808 27.2207 106.933 26.7747 106.933 26.2918V24.7492C106.836 24.8287 106.671 24.9026 106.438 24.9707C106.211 25.0389 105.956 25.0986 105.671 25.1497C105.387 25.2009 105.106 25.2463 104.828 25.2861C104.549 25.3259 104.308 25.36 104.103 25.3884C103.643 25.4509 103.231 25.5531 102.867 25.6952C102.504 25.8372 102.217 26.0361 102.007 26.2918C101.796 26.5418 101.691 26.8656 101.691 27.2634C101.691 27.8315 101.899 28.2605 102.313 28.5503C102.728 28.8401 103.257 28.985 103.899 28.985Z" fill="#1C2430"/>
<path d="M118.958 30.9878H113.845V13.5332H119.265C120.93 13.5332 122.353 13.8798 123.535 14.573C124.723 15.2662 125.632 16.2605 126.262 17.556C126.893 18.8514 127.208 20.4054 127.208 22.2179C127.208 24.0475 126.885 25.6185 126.237 26.931C125.595 28.2378 124.657 29.2406 123.424 29.9395C122.197 30.6384 120.708 30.9878 118.958 30.9878ZM115.438 29.556H118.865C120.365 29.556 121.62 29.2605 122.632 28.6696C123.643 28.0787 124.402 27.235 124.907 26.1384C125.413 25.0418 125.666 23.735 125.666 22.2179C125.66 20.7122 125.41 19.4168 124.916 18.3315C124.427 17.2463 123.7 16.4139 122.734 15.8344C121.774 15.2548 120.586 14.9651 119.171 14.9651H115.438V29.556ZM134.412 31.2861C133.622 31.2861 132.901 31.1327 132.247 30.8259C131.594 30.5134 131.074 30.0645 130.688 29.4793C130.301 28.8884 130.108 28.1725 130.108 27.3315C130.108 26.6838 130.23 26.1384 130.475 25.6952C130.719 25.252 131.066 24.8884 131.514 24.6043C131.963 24.3202 132.495 24.0957 133.108 23.931C133.722 23.7662 134.398 23.6384 135.137 23.5475C135.87 23.4565 136.489 23.377 136.995 23.3088C137.506 23.2406 137.895 23.1327 138.162 22.985C138.429 22.8372 138.563 22.5986 138.563 22.269V21.9622C138.563 21.0702 138.296 20.3685 137.762 19.8571C137.233 19.3401 136.472 19.0815 135.478 19.0815C134.534 19.0815 133.764 19.2889 133.168 19.7037C132.577 20.1185 132.162 20.6071 131.924 21.1696L130.483 20.6497C130.779 19.9338 131.188 19.3628 131.71 18.9367C132.233 18.5048 132.818 18.1952 133.466 18.0077C134.114 17.8145 134.77 17.7179 135.435 17.7179C135.935 17.7179 136.455 17.7832 136.995 17.9139C137.54 18.0446 138.046 18.2719 138.512 18.5957C138.978 18.9139 139.355 19.36 139.645 19.9338C139.935 20.502 140.08 21.2236 140.08 22.0986V30.9878H138.563V28.9168H138.469C138.287 29.3031 138.017 29.6781 137.659 30.0418C137.301 30.4054 136.853 30.7037 136.313 30.9367C135.773 31.1696 135.139 31.2861 134.412 31.2861ZM134.617 29.8969C135.424 29.8969 136.122 29.7179 136.713 29.36C137.304 29.002 137.759 28.5276 138.077 27.9367C138.401 27.3401 138.563 26.6838 138.563 25.9679V24.0759C138.449 24.1838 138.259 24.2804 137.992 24.3656C137.73 24.4509 137.426 24.5276 137.08 24.5957C136.739 24.6582 136.398 24.7122 136.057 24.7577C135.716 24.8031 135.409 24.8429 135.137 24.877C134.398 24.9679 133.767 25.11 133.245 25.3031C132.722 25.4963 132.321 25.7634 132.043 26.1043C131.764 26.4395 131.625 26.8713 131.625 27.3997C131.625 28.1952 131.909 28.8117 132.478 29.2492C133.046 29.681 133.759 29.8969 134.617 29.8969ZM152.911 20.769L151.522 21.1611C151.385 20.769 151.192 20.4139 150.942 20.0957C150.692 19.7776 150.365 19.5247 149.962 19.3372C149.564 19.1497 149.07 19.056 148.479 19.056C147.593 19.056 146.865 19.2662 146.297 19.6867C145.729 20.1071 145.445 20.6497 145.445 21.3145C145.445 21.877 145.638 22.3344 146.024 22.6867C146.416 23.0332 147.019 23.3088 147.831 23.5134L149.809 23.9992C150.905 24.2662 151.726 24.6895 152.272 25.269C152.823 25.8486 153.098 26.5759 153.098 27.4509C153.098 28.1895 152.894 28.8457 152.485 29.4196C152.076 29.9935 151.505 30.4452 150.772 30.7747C150.044 31.0986 149.201 31.2605 148.24 31.2605C146.962 31.2605 145.908 30.9736 145.078 30.3997C144.249 29.8202 143.718 28.985 143.485 27.894L144.942 27.5361C145.13 28.3145 145.496 28.9026 146.041 29.3003C146.593 29.698 147.317 29.8969 148.215 29.8969C149.22 29.8969 150.024 29.6725 150.627 29.2236C151.229 28.769 151.53 28.2009 151.53 27.519C151.53 26.9906 151.354 26.5475 151.002 26.1895C150.649 25.8259 150.115 25.5588 149.399 25.3884L147.26 24.877C146.124 24.6043 145.283 24.1725 144.737 23.5815C144.192 22.9906 143.919 22.2577 143.919 21.3827C143.919 20.6611 144.115 20.0276 144.507 19.4821C144.899 18.931 145.439 18.4992 146.127 18.1867C146.814 17.8742 147.598 17.7179 148.479 17.7179C149.678 17.7179 150.635 17.9906 151.351 18.5361C152.073 19.0759 152.593 19.8202 152.911 20.769ZM157.937 22.806V30.9878H156.42V13.5332H157.937V19.9509H158.073C158.38 19.2747 158.855 18.735 159.497 18.3315C160.144 17.9281 160.963 17.7264 161.951 17.7264C162.838 17.7264 163.616 17.9082 164.286 18.2719C164.957 18.6355 165.48 19.1725 165.855 19.8827C166.23 20.5929 166.417 21.4679 166.417 22.5077V30.9878H164.892V22.6014C164.892 21.5219 164.59 20.6725 163.988 20.0531C163.392 19.4281 162.585 19.1156 161.568 19.1156C160.869 19.1156 160.247 19.2634 159.701 19.5588C159.156 19.8543 158.724 20.2804 158.406 20.8372C158.093 21.3884 157.937 22.0446 157.937 22.806Z" fill="#6F767E"/>
</svg>
