<svg viewBox="0 0 24 24" fill="none" xmlns="http://www.w3.org/2000/svg">
  <path d="M7.5 10.5c1.38 0 2.5-1.12 2.5-2.5S8.88 5.5 7.5 5.5 5 6.62 5 8s1.12 2.5 2.5 2.5zm0-4C8.33 6.5 9 7.17 9 8s-.67 1.5-1.5 1.5S6 8.83 6 8s.67-1.5 1.5-1.5zm9 4c1.38 0 2.5-1.12 2.5-2.5s-1.12-2.5-2.5-2.5-2.5 1.12-2.5 2.5 1.12 2.5 2.5 2.5zm0-4c.83 0 1.5.67 1.5 1.5s-.67 1.5-1.5 1.5-1.5-.67-1.5-1.5.67-1.5 1.5-1.5zm-4.5 5c-1.66 0-5 .84-5 2.5V19h10v-1.5c0-1.66-3.34-2.5-5-2.5zm3.5 3.5h-7v-1c0-.81 2.05-1.5 3.5-1.5s3.5.69 3.5 1.5v1z" fill="currentColor"/>
</svg>
